<svg width="372.75" height="372.75" viewBox="0 0 372.75 372.75" fill="none" xmlns="http://www.w3.org/2000/svg">
<g id="idea-launch 1">
<path id="Vector" d="M339.183 137.524L333.091 142.208L333.157 150.137L327.209 145.495L320.153 148.162L322.567 140.612L318.136 134.339L325.577 134.309L329.893 127.765L332.079 135.296L339.183 137.524Z" fill="#FFED88"/>
<path id="Vector_2" d="M278.322 48.1204C278.484 49.3745 278.336 50.6489 277.892 51.8331C277.449 53.017 276.722 54.0747 275.777 54.9141C274.831 55.7532 273.695 56.3492 272.466 56.649C271.238 56.9491 269.955 56.9448 268.729 56.6358C267.503 56.3271 266.371 55.7237 265.431 54.8776C264.491 54.0316 263.773 52.9688 263.337 51.7815C262.902 50.5945 262.764 49.319 262.934 48.066C263.103 46.813 263.577 45.6206 264.313 44.5925C267.574 40.0352 274.391 40.6192 277.299 45.2188C277.844 46.1017 278.193 47.0911 278.322 48.1204Z" fill="#171717"/>
<path id="Vector_3" d="M267.431 120.215L267.112 120.197C267.329 116.705 267.359 112.605 266.258 108.048L266.33 108.03C269.836 108.022 273.338 107.809 276.818 107.392C276.203 109.065 275.999 110.853 275.8 112.623C275.457 115.609 275.118 118.598 274.783 121.587C272.603 120.57 269.991 121.172 267.709 120.444C267.653 120.433 267.6 120.411 267.553 120.379C267.506 120.347 267.467 120.305 267.437 120.257C267.432 120.244 267.43 120.229 267.431 120.215Z" fill="#FFED88"/>
<path id="Vector_4" d="M267.708 120.445C269.99 121.174 272.603 120.572 274.782 121.589C275.119 118.597 275.458 115.609 275.8 112.625C275.999 110.855 276.203 109.067 276.817 107.393C273.337 107.81 269.835 108.023 266.33 108.031L266.258 108.049C265.743 105.912 265.023 103.829 264.108 101.83L264.084 101.619C268.888 98.3022 273.663 91.9204 277.564 85.0152C279.724 81.1911 281.62 77.2244 283.241 73.1428C283.41 72.7215 283.572 72.3002 283.729 71.8847L284.114 72.023C292.121 87.1271 295.456 107.652 284.56 122.179C281.218 126.99 275.758 133.323 269.599 132.095C269.153 132.011 268.716 131.888 268.292 131.727C265.866 129.855 266.745 125.81 267.112 120.199L267.431 120.216C267.43 120.231 267.433 120.245 267.438 120.259C267.467 120.307 267.507 120.348 267.553 120.38C267.6 120.412 267.653 120.434 267.708 120.445Z" fill="#FFED88"/>
<path id="Vector_5" d="M258.202 71.0045C268.942 61.9576 269.081 76.501 266.571 90.1856L266.33 90.1433C264.441 89.5438 262.672 88.6165 261.104 87.4039C259.28 92.0998 257.243 96.7071 254.993 101.227C257.68 102.121 260.259 103.312 262.681 104.779L262.729 104.797C262.03 106.651 261.363 108.036 260.791 108.74C258.045 113.46 255.89 119.806 250.707 122.238C244.668 123.159 242.206 115.826 242.332 110.805C242.439 105.813 243.241 100.861 244.717 96.0909C244.741 96.0133 244.77 95.9286 244.794 95.8444C247.582 86.7901 252.477 78.2471 258.202 71.0045Z" fill="#FFED88"/>
<path id="Vector_6" d="M254.993 101.227C257.239 96.7172 259.276 92.1099 261.104 87.4039C262.672 88.6169 264.441 89.5441 266.33 90.1432L266.571 90.1856C265.872 94.019 264.957 97.8098 263.831 101.54C263.464 102.732 263.091 103.828 262.729 104.797L262.681 104.779C260.259 103.313 257.68 102.121 254.993 101.227Z" fill="#FFED88"/>
<path id="Vector_7" d="M259.804 30.5229C266.137 19.9873 273.765 12.6002 281.897 16.7121C290.524 21.0772 292.09 30.9022 291.096 41.2032L291.066 41.197C289.471 39.1562 287.201 37.7534 284.901 36.5614C277.156 32.5662 268.559 30.5028 259.844 30.5469L259.804 30.5229Z" fill="#FFED88"/>
<path id="Vector_8" d="M243.242 76.5488C242.995 82.9484 243.663 89.4929 244.386 95.7178L244.795 95.8444C244.771 95.9286 244.741 96.0129 244.718 96.0909L244.218 95.9356C233.417 94.3522 228.131 104.418 227.433 113.719C226.969 114.262 226.096 113.899 225.536 113.472C224.823 112.909 224.164 112.28 223.568 111.594C218.39 105.621 219.016 96.3732 221.093 89.0592C221.38 87.4808 221.789 85.9269 222.315 84.4114C224.778 86.2659 227.3 88.036 229.883 89.7216C232.093 86.4748 234.121 83.108 235.958 79.6364L229.241 73.6036L228.958 73.3571C233.462 68.3902 239.403 64.6153 245.869 61.9906L245.924 62.0084C245.815 62.3093 245.713 62.5986 245.616 62.8813C244.725 65.4835 244.094 68.1677 243.732 70.8946C243.474 72.77 243.311 74.657 243.242 76.5488Z" fill="#FFED88"/>
<path id="Vector_9" d="M224.38 255.717C233.055 257.637 239.95 251.117 239.642 242.797H239.654C241.899 247.77 241.61 253.694 239.421 258.691C237.231 263.687 233.262 267.781 228.632 270.677C227.491 271.414 226.279 272.033 225.014 272.526C224.357 272.77 223.683 272.965 222.997 273.108L222.846 273.102C223.002 267.292 223.34 261.488 223.731 255.673L224.38 255.717Z" fill="#FFED88"/>
<path id="Vector_10" d="M233.964 356.552C224.943 354.906 216.139 352.238 207.721 348.598L207.42 348.46C207.728 348.146 208.001 347.799 208.233 347.425C208.728 346.586 209.042 345.653 209.154 344.685L209.287 344.704C210.147 344.89 210.995 345.101 211.845 345.336C214.356 346.022 216.83 346.889 219.305 347.732C220.912 348.286 222.527 348.828 224.158 349.309C226.09 349.895 228.059 350.348 230.052 350.668C230.977 350.817 231.91 350.911 232.845 350.951C234.56 351.043 236.277 350.825 237.915 350.307C240.425 349.47 242.695 347.58 243.467 345.045C244.015 343.257 243.793 341.317 243.419 339.482C243.154 338.194 242.798 336.863 241.938 335.858C241.551 335.42 241.096 335.048 240.59 334.756C239.942 334.383 239.266 334.063 238.567 333.799C235.823 332.686 233.035 331.676 230.204 330.77C229.615 330.576 229.024 330.391 228.428 330.21L228.392 329.994C233.798 329.086 239.114 327.708 244.28 325.876C247.001 328.199 249.753 330.571 251.788 333.516C253.858 336.508 255.153 340.216 254.539 343.805C254.154 346.051 253.058 348.104 251.926 350.079C251.041 351.626 250.101 353.179 248.783 354.377C246.863 356.117 244.268 356.972 241.685 357.183C239.103 357.393 236.511 357.009 233.964 356.552Z" fill="#FFED88"/>
<path id="Vector_11" d="M229.238 73.6052L235.958 79.6368C234.121 83.1076 232.093 86.474 229.883 89.7208C227.3 88.0411 224.778 86.2709 222.315 84.4107C223.757 80.3143 226.016 76.5534 228.955 73.3575L229.238 73.6052Z" fill="#FFED88"/>
<path id="Vector_12" d="M197.769 75.4357L201.339 82.5097L193.952 80.9865L188.805 86.5013L187.625 78.6627L180.87 75.0019L187.534 71.679L188.504 63.8944L193.802 69.6802L201.153 68.5363L197.769 75.4357Z" fill="#FFED88"/>
<path id="Vector_13" d="M179.424 162.16C176.076 161.046 172.91 159.276 169.424 158.668C158.154 156.566 152.609 165.705 154.385 175.94C154.662 178.017 153.716 179.619 152.356 181.1C152.006 181.485 151.633 181.858 151.242 182.231C144.836 186.909 145.505 176.771 147.798 172.539C148.104 172.187 148.371 171.804 148.593 171.395C148.277 171.738 148.01 172.123 147.798 172.539C146.07 174.55 143.006 175.839 141.05 173.562C139.635 168.89 146.504 161.154 149.105 159.553C138.009 159.216 145.541 146.651 152.958 150.805C148.027 140.769 158.683 135.345 162.242 146.555C159.556 135.206 171.609 133.418 170.447 145.483C172.434 131.66 184.481 135.453 177.768 148.439C187.292 135.104 196.594 147.939 182.139 154.369C192.933 150.799 195.631 164.297 183.084 163.02C181.838 162.859 180.611 162.57 179.424 162.16Z" fill="#171717"/>
<path id="Vector_14" d="M178.757 208.336C178.154 210.732 175.686 210.238 169.587 210.106C162.772 209.804 155.687 211.262 149.022 209.642C148.674 209.355 148.418 208.972 148.287 208.54C147.727 206.836 148.673 204.338 148.588 202.616C148.624 201.454 149.359 200.503 150.569 200.774C151.369 200.87 152.164 200.948 152.965 201.003C158.191 201.43 163.374 201.261 168.612 201.285C169.016 201.285 169.419 201.286 169.823 201.292C173.332 201.328 178.287 200.509 178.654 203.507C178.937 205.795 179.015 207.324 178.757 208.336Z" fill="#FFED88"/>
<path id="Vector_15" d="M139.642 329.081C141.268 327.931 142.891 326.781 144.513 325.632C145.049 325.252 145.585 324.873 146.114 324.5C146.601 325.677 147.432 326.68 148.498 327.377L148.354 327.6C143.123 332.242 137.188 336.026 130.773 338.81C128.9 339.623 126.896 340.358 124.873 340.105C123.686 339.923 122.553 339.487 121.549 338.828C118.672 337.016 116.703 334.091 115.017 331.14C114.222 329.742 113.458 328.299 113.151 326.721C112.693 324.361 113.307 321.893 114.421 319.768C115.535 317.637 117.124 315.8 118.738 314.024C122.704 309.66 126.917 305.527 131.357 301.646C133.266 299.973 135.312 298.299 137.787 297.745C139.87 297.276 142.043 297.655 144.145 298.046C145.234 298.985 146.308 299.943 147.365 300.92C147.45 300.908 147.534 300.901 147.618 300.889C149.984 300.6 152.368 300.372 154.752 300.185L154.771 300.384C151.121 302.141 148.768 305.537 147.281 309.384L147.203 309.354C146.001 309.537 144.811 309.792 143.639 310.119C141.884 310.604 140.163 311.203 138.486 311.913C137.15 312.467 135.831 313.075 134.531 313.719C134.458 313.755 134.38 313.791 134.308 313.827C132.433 314.717 130.644 315.777 128.962 316.994C128.375 317.435 127.817 317.911 127.288 318.421C125.271 320.377 123.755 322.978 123.61 325.784C123.464 328.59 124.904 331.551 127.451 332.731C128.224 333.076 129.055 333.274 129.901 333.314C131.152 333.356 132.398 333.15 133.568 332.706C134.472 332.364 135.341 331.937 136.163 331.429C137.126 330.857 138.053 330.201 138.975 329.551L139.642 329.081Z" fill="#FFED88"/>
<path id="Vector_16" d="M140.449 129.432L139.432 129.649C131.293 134.189 123.153 138.732 115.013 143.278C110.414 146.366 107.512 145.385 103.207 142.892C102.34 137.45 108.312 131.532 106.789 129.172C97.7586 120.484 68.0299 154.71 67.0608 144.488C68.2889 136.065 72.1418 128.208 74.5985 120.093C68.066 120.213 63.0692 126.962 56.3326 127.655C52.5095 110.997 64.3575 94.0245 75.116 82.2006C93.3819 77.8907 113.672 83.1216 128.632 103.44C127.91 104.412 127.318 105.475 126.873 106.601C123.364 116.377 130.873 121.621 137.396 119.52L137.522 119.924C138.8 122.992 139.78 126.176 140.449 129.432Z" fill="#FFED88"/>
<path id="Vector_17" d="M133.472 258.437L133.484 258.371C136.114 250.381 137.86 242.126 138.692 233.754C131.72 234.753 124.989 236.909 120.901 242.767C115.302 252.483 125.2 257.137 133.472 258.437ZM140.461 263.44C150.178 252.983 142.803 249.202 136.006 260.563H136C136.012 266.342 136.283 272.194 136.47 277.98C136.5 278.841 136.524 279.702 136.547 280.557C135.307 280.751 134.049 280.966 132.779 281.195C129.6 281.766 126.325 282.398 123.033 282.91C114.056 284.319 104.911 284.855 96.8979 280.814C96.6261 280.675 96.3563 280.537 96.0853 280.387C80.3358 266.973 86.8077 238.142 101.366 226.107C114.803 215.728 132.058 212.41 148.259 208.545L148.289 208.539C148.42 208.971 148.676 209.354 149.023 209.641C155.688 211.261 162.774 209.804 169.589 210.105C175.688 210.237 178.156 210.731 178.758 208.334C182.136 208.188 185.521 208.313 188.879 208.708L188.981 208.756C188.102 210.718 188.066 213.054 189.354 215.481C184.086 212.434 178.18 219.418 178.24 224.463C169.704 224.553 161.227 224.391 152.955 223.963C152.744 237.112 151.143 250.2 149.732 263.296C146.669 263.242 143.363 262.327 140.461 263.44H140.461Z" fill="#FFED88"/>
<path id="Vector_18" d="M87.6688 55.5859L93.2736 62.6297L85.5674 61.263L80.7632 67.2476L80.5826 59.1201L72.3165 57.061L78.5958 52.4253L78.6921 44.412L84.3093 50.8237L91.7865 49.7582L87.6688 55.5859Z" fill="#FFED88"/>
<path id="Vector_19" d="M80.6667 190.853L80.6547 190.955C66.4405 188.89 53.2378 181.774 43.0392 170.732C48.9799 168.469 55.0076 162.689 61.54 163.948C60.2909 166.171 59.6941 168.703 59.818 171.25C73.369 172.412 83.5384 144.7 90.7387 148.734C86.9821 156.464 82.0575 163.797 78.9567 171.768C79.9682 179.793 93.5502 169.293 96.2655 166.157C100.504 162.436 106.434 156.362 112.135 158.409C106.446 172.274 92.4545 181.677 80.6667 190.853Z" fill="#FFED88"/>
<path id="Vector_20" d="M147.8 172.539C145.506 176.771 144.838 186.909 151.243 182.231C151.635 181.858 152.008 181.485 152.357 181.1C153.716 179.619 154.663 178.017 154.386 175.94C152.61 165.705 158.155 156.565 169.425 158.667C172.911 159.276 176.078 161.046 179.425 162.16C180.613 162.57 181.839 162.859 183.085 163.02C195.632 164.297 192.935 150.799 182.14 154.369C196.595 147.939 187.294 135.104 177.769 148.439C184.482 135.453 172.435 131.66 170.448 145.483C171.61 133.418 159.557 135.206 162.243 146.555C158.685 135.345 148.029 140.769 152.959 150.805C145.543 146.651 138.01 159.215 149.106 159.553C146.505 161.154 139.636 168.89 141.051 173.562C143.007 175.838 146.072 174.549 147.8 172.539Z" stroke="#171717" stroke-width="1.80628" stroke-linecap="round" stroke-linejoin="round"/>
<path id="Vector_21" d="M147.8 172.538C148.106 172.187 148.372 171.803 148.595 171.394C148.279 171.738 148.012 172.123 147.8 172.538Z" stroke="#171717" stroke-width="1.80628" stroke-linecap="round" stroke-linejoin="round"/>
<path id="Vector_22" d="M174.266 165.374C158.21 157.698 175.645 181.455 166.741 180.867" stroke="#171717" stroke-width="1.80628" stroke-linecap="round" stroke-linejoin="round"/>
<path id="Vector_23" d="M162.658 168.692C161.969 168.203 161.136 167.96 160.292 167.999C159.454 168.044 158.636 168.265 157.89 168.649" stroke="#171717" stroke-width="1.80628" stroke-linecap="round" stroke-linejoin="round"/>
<path id="Vector_24" d="M170.931 169.703C171.216 169.477 171.552 169.323 171.908 169.252C172.266 169.182 172.634 169.198 172.984 169.299C173.68 169.509 174.325 169.859 174.88 170.329" stroke="#171717" stroke-width="1.80628" stroke-linecap="round" stroke-linejoin="round"/>
<path id="Vector_25" d="M157.426 184.645C157.797 185.667 158.49 186.539 159.401 187.13C159.859 187.42 160.375 187.603 160.912 187.668C161.45 187.733 161.994 187.676 162.507 187.504" stroke="#171717" stroke-width="1.80628" stroke-linecap="round" stroke-linejoin="round"/>
<path id="Vector_26" d="M179.424 162.129V162.16C179.051 168.457 178.675 174.756 178.298 181.058C178.78 193.255 167.859 189.179 168.611 201.226" stroke="#171717" stroke-width="1.80628" stroke-linecap="round" stroke-linejoin="round"/>
<path id="Vector_27" d="M152.34 180.973L152.358 181.099C153.21 187.486 153.432 193.941 153.02 200.371" stroke="#171717" stroke-width="1.80628" stroke-linecap="round" stroke-linejoin="round"/>
<path id="Vector_28" d="M152.965 201.003C152.165 200.948 151.37 200.87 150.569 200.774C149.359 200.502 148.625 201.454 148.589 202.616C148.673 204.338 147.728 206.836 148.288 208.54C148.419 208.972 148.674 209.355 149.022 209.642C155.687 211.262 162.773 209.805 169.588 210.106C175.687 210.238 178.155 210.732 178.757 208.336C179.016 207.326 178.938 205.795 178.655 203.507C178.287 200.509 173.333 201.328 169.823 201.292C169.419 201.286 169.016 201.286 168.613 201.286C163.375 201.261 158.191 201.43 152.965 201.003Z" stroke="#171717" stroke-width="1.80628" stroke-linecap="round" stroke-linejoin="round"/>
<path id="Vector_29" d="M148.258 208.546C132.057 212.411 114.802 215.729 101.365 226.108C86.8073 238.144 80.3354 266.974 96.0841 280.387C96.3558 280.538 96.6257 280.677 96.8967 280.814C104.91 284.853 114.055 284.318 123.032 282.911C126.325 282.399 129.6 281.767 132.777 281.195C134.047 280.967 135.306 280.75 136.546 280.557C136.522 279.703 136.498 278.842 136.468 277.98C136.282 272.195 136.011 266.343 135.999 260.563C135.993 259.955 135.993 259.347 135.999 258.738C135.186 258.672 134.337 258.576 133.47 258.437C125.2 257.137 115.3 252.483 120.899 242.766C124.987 236.908 131.718 234.753 138.69 233.754C142.428 233.218 146.239 233.013 149.737 232.748" stroke="#171717" stroke-width="1.80628" stroke-linecap="round" stroke-linejoin="round"/>
<path id="Vector_30" d="M136.006 260.563C142.801 249.202 150.178 252.983 140.461 263.441C143.363 262.327 146.668 263.242 149.733 263.296C149.877 263.302 150.015 263.302 150.154 263.302" stroke="#171717" stroke-width="1.80628" stroke-linecap="round" stroke-linejoin="round"/>
<path id="Vector_31" d="M136.434 277.974C136.446 277.974 136.458 277.979 136.47 277.979C140.359 278.762 144.246 279.547 148.131 280.334C148.248 280.351 148.36 280.376 148.475 280.4" stroke="#171717" stroke-width="1.80628" stroke-linecap="round" stroke-linejoin="round"/>
<path id="Vector_32" d="M148.197 274.415C146.144 273.844 144.062 273.38 141.96 273.025" stroke="#171717" stroke-width="1.80628" stroke-linecap="round" stroke-linejoin="round"/>
<path id="Vector_33" d="M149.034 267.956C147.086 267.413 145.096 267.029 143.086 266.806" stroke="#171717" stroke-width="1.80628" stroke-linecap="round" stroke-linejoin="round"/>
<path id="Vector_34" d="M178.245 224.609C178.246 224.561 178.244 224.512 178.239 224.464C178.179 219.419 184.085 212.435 189.353 215.482C188.065 213.055 188.101 210.72 188.98 208.757C190.805 204.669 196.27 202.213 200.96 204.013C201.038 204.043 201.123 204.073 201.201 204.109" stroke="#171717" stroke-width="1.80628" stroke-linecap="round" stroke-linejoin="round"/>
<path id="Vector_35" d="M199.937 207.192C200.13 206.09 200.475 205.02 200.961 204.013C201.438 202.935 202.304 202.077 203.387 201.611C203.851 201.424 204.344 201.316 204.844 201.292" stroke="#171717" stroke-width="1.80628" stroke-linecap="round" stroke-linejoin="round"/>
<path id="Vector_36" d="M219.16 169.179C218.14 168.786 217.073 168.524 215.987 168.403C205.337 167.18 196.854 180.184 204.109 188.378C204.829 189.185 205.643 189.902 206.535 190.514" stroke="#171717" stroke-width="1.80628" stroke-linecap="round" stroke-linejoin="round"/>
<path id="Vector_37" d="M229.533 136.205C228.33 136.397 227.165 136.773 226.077 137.319C218.997 140.913 218.117 151.118 221.712 158.252C222.135 159.1 222.631 159.91 223.193 160.672" stroke="#171717" stroke-width="1.80628" stroke-linecap="round" stroke-linejoin="round"/>
<path id="Vector_38" d="M269.593 132.081C269.593 132.087 269.593 132.087 269.599 132.093C273.043 146.127 262.158 160.504 248.534 155.826C246.994 155.288 245.523 154.571 244.151 153.69" stroke="#171717" stroke-width="1.80628" stroke-linecap="round" stroke-linejoin="round"/>
<path id="Vector_39" d="M236.456 200.853C237.219 200.914 237.986 200.918 238.75 200.865C254.74 199.913 257.323 175.772 242.133 171.847C240.769 171.504 239.368 171.326 237.961 171.316" stroke="#171717" stroke-width="1.80628" stroke-linecap="round" stroke-linejoin="round"/>
<path id="Vector_40" d="M234.819 239.961C236.319 240.361 237.866 240.56 239.419 240.551C253.464 240.298 250.358 218.035 237.498 214.922C236.457 214.668 235.387 214.547 234.314 214.561" stroke="#171717" stroke-width="1.80628" stroke-linecap="round" stroke-linejoin="round"/>
<path id="Vector_41" d="M242.05 172.015C242.082 171.96 242.11 171.904 242.134 171.846C242.866 170.348 243.148 168.671 242.948 167.017C242.749 165.363 242.075 163.801 241.008 162.52" stroke="#171717" stroke-width="1.80628" stroke-linecap="round" stroke-linejoin="round"/>
<path id="Vector_42" d="M236.752 163.526C238.186 163.262 239.603 162.916 240.996 162.49C244.41 161.406 247.505 159.582 248.534 155.826C248.54 155.807 248.546 155.783 248.552 155.765" stroke="#171717" stroke-width="1.80628" stroke-linecap="round" stroke-linejoin="round"/>
<path id="Vector_43" d="M221.851 158.168C221.803 158.198 221.761 158.222 221.712 158.252C218.48 160.221 216.421 164.706 215.993 168.354" stroke="#171717" stroke-width="1.80628" stroke-linecap="round" stroke-linejoin="round"/>
<path id="Vector_44" d="M204.109 188.378C199.732 191.382 201.207 197.547 203.363 201.551" stroke="#171717" stroke-width="1.80628" stroke-linecap="round" stroke-linejoin="round"/>
<path id="Vector_45" d="M223.669 111.514C223.633 111.538 223.597 111.569 223.567 111.592C213.627 119.063 217.745 130.237 226.048 136.974" stroke="#171717" stroke-width="1.80628" stroke-linecap="round" stroke-linejoin="round"/>
<path id="Vector_46" d="M237.462 214.988C237.474 214.964 237.486 214.946 237.498 214.922C239.743 210.72 239.533 205.458 238.75 200.864C238.744 200.84 238.744 200.816 238.738 200.792" stroke="#171717" stroke-width="1.80628" stroke-linecap="round" stroke-linejoin="round"/>
<path id="Vector_47" d="M224.38 255.716C233.055 257.637 239.95 251.117 239.642 242.796C239.619 242.108 239.547 241.422 239.425 240.743" stroke="#171717" stroke-width="1.80628" stroke-linecap="round" stroke-linejoin="round"/>
<path id="Vector_48" d="M278.455 165.802C277.913 164.407 277.096 163.135 276.053 162.063C270.201 156.122 258.955 159.474 257.432 168.776C252.976 180.708 263.838 191.443 273.488 184.08C274.345 183.42 275.137 182.68 275.854 181.87" stroke="#171717" stroke-width="1.80628" stroke-linecap="round" stroke-linejoin="round"/>
<path id="Vector_49" d="M267.715 208.757C267.141 208.369 266.522 208.052 265.872 207.812C258.021 204.904 250.442 215.903 255.33 223.074C260.106 231.388 273.157 228.685 274.885 219.798C274.986 219.272 275.046 218.739 275.065 218.203" stroke="#171717" stroke-width="1.80628" stroke-linecap="round" stroke-linejoin="round"/>
<path id="Vector_50" d="M273.47 184.049C273.476 184.061 273.482 184.067 273.488 184.079C282.338 198.829 297.359 182.586 296.269 170.564C295.648 160.937 283.35 155.783 276.053 162.063C276.032 162.084 276.01 162.104 275.987 162.123" stroke="#171717" stroke-width="1.80628" stroke-linecap="round" stroke-linejoin="round"/>
<path id="Vector_51" d="M274.891 219.798C283.048 222.555 291.212 210.93 286.046 204.157C280.821 197.872 268.437 199.371 265.968 207.565" stroke="#171717" stroke-width="1.80628" stroke-linecap="round" stroke-linejoin="round"/>
<path id="Vector_52" d="M216.072 153.851C215.223 146.362 200.828 146.813 201.966 155.115C202.527 167.126 216.409 164.543 216.072 153.851Z" stroke="#171717" stroke-width="1.80628" stroke-linecap="round" stroke-linejoin="round"/>
<path id="Vector_53" d="M214.271 134.556C220.671 122.762 205.457 120.835 202.157 130.396C201.75 136.783 210.803 140.407 214.271 134.556Z" stroke="#171717" stroke-width="1.80628" stroke-linecap="round" stroke-linejoin="round"/>
<path id="Vector_54" d="M245.867 61.9917C239.401 64.6165 233.459 68.3914 228.956 73.3583C226.016 76.5546 223.757 80.3151 222.316 84.4115C221.789 85.9269 221.381 87.4808 221.094 89.0592C219.017 96.374 218.391 105.621 223.568 111.594C224.165 112.28 224.823 112.909 225.537 113.472C226.097 113.899 226.97 114.261 227.433 113.719C228.132 104.417 233.418 94.3515 244.218 95.9356" stroke="#171717" stroke-width="1.80628" stroke-linecap="round" stroke-linejoin="round"/>
<path id="Vector_55" d="M284.114 72.0214C292.121 87.1255 295.457 107.65 284.56 122.178C281.219 126.988 275.758 133.321 269.599 132.093C269.154 132.01 268.717 131.887 268.293 131.726C265.867 129.853 266.745 125.808 267.113 120.197C267.329 116.705 267.36 112.605 266.258 108.048C265.744 105.91 265.024 103.828 264.109 101.829" stroke="#171717" stroke-width="1.80628" stroke-linecap="round" stroke-linejoin="round"/>
<path id="Vector_56" d="M266.57 90.1856C269.081 76.501 268.942 61.9556 258.202 71.0045C252.477 78.2471 247.582 86.79 244.795 95.8448C244.77 95.929 244.741 96.0133 244.717 96.0917C243.241 100.861 242.439 105.813 242.332 110.805C242.206 115.826 244.669 123.159 250.707 122.238C255.89 119.806 258.045 113.46 260.791 108.74C261.363 108.036 262.031 106.651 262.73 104.797C263.091 103.826 263.464 102.732 263.832 101.54C264.958 97.8098 265.872 94.0191 266.57 90.1856Z" stroke="#171717" stroke-width="1.80628" stroke-linecap="round" stroke-linejoin="round"/>
<path id="Vector_57" d="M264.084 101.618C268.889 98.3006 273.663 91.9189 277.564 85.0137C279.724 81.1899 281.621 77.2232 283.241 73.1412C283.41 72.7199 283.573 72.2986 283.729 71.8832C284.47 69.9204 285.084 68.0602 285.547 66.3564C287.299 59.9498 290.219 50.3841 291.1 41.2032C292.093 30.9022 290.528 21.0772 281.901 16.7121C273.767 12.6002 266.139 19.9873 259.808 30.5229C257.175 34.9999 254.825 39.6365 252.77 44.4061C250.747 49.0115 248.977 53.575 247.502 57.6026H247.496C246.93 59.1619 246.4 60.6428 245.925 62.0096C245.816 62.3105 245.714 62.5998 245.617 62.8825C244.726 65.4847 244.095 68.1689 243.733 70.8958C243.476 72.7708 243.313 74.6575 243.245 76.5488C242.998 82.9488 243.667 89.4929 244.389 95.7178" stroke="#171717" stroke-width="1.80628" stroke-linecap="round" stroke-linejoin="round"/>
<path id="Vector_58" d="M97.4756 280.779L96.8974 280.816C89.0771 281.291 81.106 281.875 73.8996 284.946C66.5245 288.088 59.9863 294.428 58.8731 302.369C58.0189 308.51 60.5167 314.777 64.4962 319.527C68.4757 324.283 73.8095 327.703 79.2943 330.587C91.6603 337.082 105.154 341.2 118.788 344.205C144.899 349.96 171.786 351.754 198.51 351.068C201.677 350.983 205.295 350.616 207.42 348.461C207.728 348.147 208.001 347.799 208.233 347.425C208.728 346.587 209.042 345.653 209.154 344.686C209.265 343.86 209.303 343.026 209.269 342.194C209.189 339.171 208.662 336.176 207.703 333.308" stroke="#171717" stroke-width="1.80628" stroke-linecap="round" stroke-linejoin="round"/>
<path id="Vector_59" d="M222.996 275.927C231.954 275.186 241.206 275.162 249.648 278.275C258.082 281.381 265.62 288.148 267.534 296.938C267.751 297.942 267.896 298.96 267.968 299.984C268.347 305.258 266.728 310.713 263.254 314.698C261.345 316.884 258.949 318.587 256.469 320.098C252.605 322.422 248.522 324.358 244.277 325.878C239.111 327.711 233.795 329.089 228.389 329.996C223.393 330.848 218.358 331.448 213.302 331.796C212.543 331.856 211.785 331.904 211.026 331.951C209.9 332.024 208.768 332.084 207.643 332.138C189.182 333.043 170.679 331.878 152.478 328.665C151.202 328.443 149.901 328.196 148.775 327.552C148.68 327.499 148.587 327.441 148.498 327.377C147.432 326.68 146.601 325.677 146.114 324.499C145.019 322.019 145.073 318.78 145.532 315.993C145.891 313.736 146.477 311.521 147.283 309.382C148.77 305.535 151.124 302.14 154.772 300.382" stroke="#171717" stroke-width="1.80628" stroke-linecap="round" stroke-linejoin="round"/>
<path id="Vector_60" d="M152.954 223.965C161.224 224.392 169.702 224.555 178.239 224.465C194.18 224.307 210.099 223.227 225.915 221.231C225.512 232.815 224.5 244.259 223.729 255.672C223.338 261.488 223.001 267.292 222.845 273.101C222.814 274.04 222.796 274.98 222.778 275.919C222.61 283.296 222.853 290.676 223.507 298.026C200.966 300.602 177.469 298.393 154.754 300.181C152.37 300.368 149.986 300.596 147.619 300.885C147.535 300.897 147.451 300.904 147.367 300.916C146.307 299.94 145.233 298.983 144.146 298.042C137.603 292.376 130.538 287.342 123.046 283.007" stroke="#171717" stroke-width="1.80628" stroke-linecap="round" stroke-linejoin="round"/>
<path id="Vector_61" d="M152.954 223.965C152.743 237.114 151.142 250.202 149.731 263.298C149.117 268.975 148.545 274.652 148.129 280.336C147.857 284.068 147.654 287.807 147.557 291.551C147.491 294.483 147.48 297.421 147.557 300.365" stroke="#171717" stroke-width="1.80628" stroke-linecap="round" stroke-linejoin="round"/>
<path id="Vector_62" d="M132.797 281.291C137.631 284.753 142.498 288.17 147.397 291.544" stroke="#171717" stroke-width="1.80628" stroke-linecap="round" stroke-linejoin="round"/>
<path id="Vector_63" d="M193.325 249.509C192.573 248.982 191.731 248.598 190.84 248.377C186.583 247.137 181.286 247.45 178.859 251.701C175.205 257.269 175.947 262.76 178.691 266.276C179.441 267.234 180.354 268.054 181.388 268.696C185.674 271.351 191.797 270.587 195.921 263.362C196.633 261.789 197.026 260.091 197.078 258.366C197.129 256.64 196.839 254.921 196.222 253.308C195.645 251.788 194.639 250.467 193.325 249.509Z" stroke="#171717" stroke-width="1.80628" stroke-linecap="round" stroke-linejoin="round"/>
<path id="Vector_64" d="M177.895 266.992C170.31 277.275 174.584 274.855 181.387 268.696C186.664 263.898 191.619 258.758 196.22 253.308C198.917 250.033 200.717 247.324 200.657 246.12C198.375 245.795 196.479 247.498 194.986 249.01" stroke="#FFED88" stroke-width="1.80628" stroke-linecap="round" stroke-linejoin="round"/>
<path id="Vector_65" d="M140.702 148.246C138.197 162.405 129.709 175.211 117.234 183.579C114.228 185.594 111.039 187.323 107.71 188.743C98.9729 191.507 89.7244 192.262 80.6546 190.953C66.4404 188.888 53.2377 181.772 43.0391 170.73C41.7748 169.358 40.5564 167.928 39.3846 166.438C32.3286 155.372 29.6798 144.156 30.3119 133.645C31.3109 117.058 40.4745 102.23 53.3398 92.537C59.8039 87.6206 67.2193 84.1004 75.1157 82.2002C93.3816 77.8903 113.672 83.1212 128.631 103.439L128.721 103.566" stroke="#171717" stroke-width="1.80628" stroke-linecap="round" stroke-linejoin="round"/>
<path id="Vector_66" d="M137.523 119.926C138.8 122.994 139.78 126.177 140.449 129.432C141.726 135.629 141.812 142.011 140.702 148.24" stroke="#171717" stroke-width="1.80628" stroke-linecap="round" stroke-linejoin="round"/>
<path id="Vector_67" d="M128.631 103.442C127.909 104.414 127.318 105.477 126.873 106.603C123.363 116.38 130.872 121.624 137.395 119.523C140.051 118.674 142.543 116.597 144.066 113.123C147.854 101.311 134.947 95.0678 128.631 103.442Z" stroke="#171717" stroke-width="1.80628" stroke-linecap="round" stroke-linejoin="round"/>
<path id="Vector_68" d="M75.1521 82.1607C75.1401 82.1727 75.1281 82.1909 75.116 82.203C64.3575 94.0269 52.5095 110.999 56.3326 127.657C63.0692 126.965 68.066 120.216 74.5985 120.095C72.1418 128.21 68.2889 136.068 67.0608 144.49C68.0315 154.713 97.7586 120.487 106.789 129.174C108.312 131.534 102.34 137.452 103.207 142.895C107.512 145.387 110.414 146.368 115.013 143.28C123.153 138.735 131.293 134.192 139.432 129.651" stroke="#171717" stroke-width="1.80628" stroke-linecap="round" stroke-linejoin="round"/>
<path id="Vector_69" d="M53.8099 91.769C53.6472 92.0217 53.4907 92.2807 53.34 92.5393C49.9938 98.1154 47.9542 104.377 47.3741 110.855C48.9393 110.565 50.5044 110.278 52.07 109.993C52.2684 115.538 41.9133 136.905 37.7652 140.992C37.5123 137.623 37.6153 134.237 38.0724 130.89C34.8574 132.311 34.9898 137.976 31.5644 138.733C31.2926 137.439 30.4807 134.977 30.4023 133.652" stroke="#171717" stroke-width="1.80628" stroke-linecap="round" stroke-linejoin="round"/>
<path id="Vector_70" d="M42.8273 170.817C42.8995 170.793 42.9659 170.763 43.0382 170.732C48.9789 168.469 55.0065 162.689 61.539 163.948C60.2899 166.171 59.6931 168.703 59.8169 171.25C73.3679 172.412 83.5374 144.7 90.7377 148.734C86.9811 156.464 82.0565 163.797 78.9557 171.768C79.9671 179.793 93.5492 169.293 96.2645 166.157C100.503 162.436 106.433 156.362 112.134 158.409C106.445 172.274 92.4535 181.678 80.6657 190.853C81.0749 190.835 81.4846 190.81 81.8938 190.793" stroke="#171717" stroke-width="1.80628" stroke-linecap="round" stroke-linejoin="round"/>
<path id="Vector_71" d="M117.06 183.315C114.088 182.407 110.895 182.545 108.013 183.706C101.337 184.405 113.961 173.231 116.496 167.951C116.863 167.33 117.561 166.614 118.175 166.994C125.544 175.868 132.287 132.154 140.704 148.24V148.246C140.722 148.27 140.734 148.3 140.752 148.33" stroke="#171717" stroke-width="1.80628" stroke-linecap="round" stroke-linejoin="round"/>
<path id="Vector_72" d="M138.697 233.688C138.697 233.712 138.691 233.73 138.691 233.754C137.86 242.125 136.113 250.38 133.483 258.371" stroke="#171717" stroke-width="1.80628" stroke-linecap="round" stroke-linejoin="round"/>
<path id="Vector_73" d="M222.995 273.109C223.681 272.966 224.355 272.772 225.012 272.527C226.277 272.035 227.489 271.415 228.63 270.678C233.26 267.782 237.227 263.689 239.419 258.692C241.61 253.695 241.899 247.771 239.652 242.798" stroke="#171717" stroke-width="1.80628" stroke-linecap="round" stroke-linejoin="round"/>
<path id="Vector_74" d="M144.314 298.076C144.26 298.064 144.198 298.058 144.146 298.045C142.044 297.654 139.871 297.275 137.788 297.745C135.313 298.299 133.267 299.972 131.358 301.646C126.918 305.527 122.705 309.659 118.739 314.024C117.126 315.8 115.536 317.635 114.422 319.767C113.309 321.893 112.695 324.361 113.152 326.721C113.459 328.298 114.224 329.743 115.018 331.14C116.704 334.091 118.673 337.016 121.55 338.828C122.553 339.487 123.687 339.923 124.874 340.104C126.897 340.357 128.901 339.623 130.774 338.81C137.189 336.026 143.123 332.242 148.353 327.6" stroke="#171717" stroke-width="1.80628" stroke-linecap="round" stroke-linejoin="round"/>
<path id="Vector_75" d="M147.204 309.352C146.002 309.535 144.812 309.79 143.64 310.117C141.885 310.602 140.164 311.201 138.487 311.911C137.151 312.465 135.832 313.073 134.532 313.717C134.459 313.753 134.381 313.79 134.309 313.826C132.434 314.716 130.644 315.776 128.963 316.992C128.376 317.433 127.817 317.91 127.289 318.419C125.272 320.376 123.756 322.977 123.61 325.782C123.465 328.587 124.905 331.549 127.452 332.729C128.225 333.075 129.056 333.272 129.902 333.312C131.152 333.355 132.399 333.148 133.569 332.705C134.473 332.364 135.342 331.937 136.164 331.429C137.127 330.857 138.054 330.201 138.975 329.551L139.643 329.081C141.269 327.931 142.892 326.781 144.514 325.632C145.05 325.252 145.586 324.873 146.115 324.5C146.17 324.458 146.232 324.422 146.284 324.379" stroke="#171717" stroke-width="1.80628" stroke-linecap="round" stroke-linejoin="round"/>
<path id="Vector_76" d="M145.265 327.612C145.019 326.95 144.766 326.288 144.513 325.632C143.592 323.26 142.619 320.91 141.593 318.582C140.612 316.336 139.576 314.113 138.486 311.911C137.963 310.846 137.427 309.78 136.879 308.727" stroke="#171717" stroke-width="1.80628" stroke-linecap="round" stroke-linejoin="round"/>
<path id="Vector_77" d="M139.198 332.104C139.337 331.092 139.488 330.087 139.644 329.081C140.192 325.565 140.842 322.065 141.594 318.582C142.209 315.746 142.891 312.924 143.641 310.117C143.797 309.535 143.961 308.949 144.123 308.365" stroke="#171717" stroke-width="1.80628" stroke-linecap="round" stroke-linejoin="round"/>
<path id="Vector_78" d="M137.199 333.169C136.837 332.597 136.488 332.019 136.163 331.429C134.748 328.944 133.586 326.317 132.394 323.71C131.374 321.41 130.229 319.168 128.962 316.993C128.406 316.063 127.801 315.163 127.15 314.296" stroke="#171717" stroke-width="1.80628" stroke-linecap="round" stroke-linejoin="round"/>
<path id="Vector_79" d="M129.282 335.156C129.498 334.548 129.703 333.928 129.903 333.314C130.902 330.165 131.679 326.946 132.395 323.711C132.648 322.549 132.895 321.393 133.142 320.231C133.606 318.057 134.069 315.885 134.533 313.717C134.683 313.001 134.84 312.284 134.99 311.568" stroke="#171717" stroke-width="1.80628" stroke-linecap="round" stroke-linejoin="round"/>
<path id="Vector_80" d="M207.722 348.599C216.139 352.238 224.943 354.906 233.965 356.552C236.511 357.009 239.1 357.395 241.683 357.184C244.266 356.973 246.86 356.118 248.781 354.379C250.099 353.181 251.038 351.627 251.923 350.08C253.055 348.105 254.151 346.052 254.536 343.807C255.15 340.219 253.856 336.51 251.785 333.517C249.75 330.573 246.998 328.201 244.277 325.877C244.229 325.835 244.187 325.799 244.139 325.757" stroke="#171717" stroke-width="1.80628" stroke-linecap="round" stroke-linejoin="round"/>
<path id="Vector_81" d="M210.298 346.612C210.81 346.191 211.327 345.769 211.845 345.336C213.525 343.957 215.207 342.542 216.89 341.091C220.927 337.674 224.778 334.043 228.425 330.213C229.021 330.393 229.612 330.58 230.201 330.772C233.025 331.676 235.812 332.685 238.564 333.801C239.263 334.065 239.939 334.385 240.587 334.759C241.093 335.051 241.548 335.423 241.935 335.86C242.796 336.866 243.151 338.196 243.416 339.485C243.79 341.321 244.012 343.259 243.465 345.047C242.694 347.582 240.424 349.474 237.912 350.309C236.275 350.828 234.558 351.046 232.843 350.953C231.907 350.914 230.974 350.819 230.05 350.67C228.057 350.351 226.087 349.897 224.155 349.311C222.525 348.83 220.911 348.288 219.302 347.734C216.827 346.891 214.353 346.026 211.843 345.338C210.994 345.103 210.145 344.892 209.284 344.706" stroke="#171717" stroke-width="1.80628" stroke-linecap="round" stroke-linejoin="round"/>
<path id="Vector_82" d="M219.852 349.261C219.672 348.75 219.491 348.238 219.304 347.732C218.522 345.51 217.717 343.297 216.89 341.093C215.734 337.98 214.538 334.882 213.302 331.797C213.29 331.773 213.284 331.743 213.272 331.72" stroke="#171717" stroke-width="1.80628" stroke-linecap="round" stroke-linejoin="round"/>
<path id="Vector_83" d="M222.513 350.76C223.061 350.279 223.609 349.79 224.157 349.309C226.607 347.142 229.057 344.977 231.507 342.813L240.554 334.812" stroke="#171717" stroke-width="1.80628" stroke-linecap="round" stroke-linejoin="round"/>
<path id="Vector_84" d="M233.279 353.199C233.128 352.453 232.983 351.706 232.845 350.953C232.333 348.25 231.888 345.537 231.508 342.814C230.936 338.816 230.501 334.802 230.202 330.773C230.202 330.749 230.196 330.731 230.196 330.707" stroke="#171717" stroke-width="1.80628" stroke-linecap="round" stroke-linejoin="round"/>
<path id="Vector_85" d="M291.068 41.1969C289.472 39.1561 287.203 37.7532 284.903 36.5611C277.157 32.566 268.561 30.5025 259.846 30.5467" stroke="#171717" stroke-width="1.80628" stroke-linecap="round" stroke-linejoin="round"/>
<path id="Vector_86" d="M264.313 44.5925C263.577 45.6206 263.103 46.813 262.934 48.066C262.764 49.319 262.902 50.5945 263.337 51.7815C263.773 52.9688 264.491 54.0316 265.431 54.8776C266.371 55.7237 267.503 56.3271 268.729 56.6358C269.955 56.9448 271.238 56.9491 272.466 56.649C273.695 56.3492 274.831 55.7532 275.777 54.9141C276.722 54.0747 277.449 53.017 277.892 51.8331C278.336 50.6489 278.484 49.3745 278.322 48.1204C278.193 47.0911 277.844 46.1017 277.299 45.2188C274.391 40.6192 267.576 40.0352 264.313 44.5925Z" stroke="#171717" stroke-width="1.80628" stroke-linecap="round" stroke-linejoin="round"/>
<path id="Vector_87" d="M252.995 44.5082C254.867 45.2429 256.763 45.9111 258.684 46.5129C256.667 50.9976 254.951 55.6115 253.547 60.3241C251.635 59.2051 249.609 58.2949 247.503 57.6088" stroke="#171717" stroke-width="1.80628" stroke-linecap="round" stroke-linejoin="round"/>
<path id="Vector_88" d="M277.431 84.9419C275.578 84.1522 273.818 83.1605 272.181 81.986C274.379 78.1202 276.456 74.1932 278.412 70.204C279.888 71.1312 281.365 72.058 282.844 72.9852" stroke="#171717" stroke-width="1.80628" stroke-linecap="round" stroke-linejoin="round"/>
<path id="Vector_89" d="M243.055 76.5247C243.115 76.5309 243.181 76.5368 243.242 76.5488C243.972 76.6358 244.696 76.7705 245.409 76.9522C246.349 77.1689 247.294 77.3918 248.239 77.6084C248.354 75.3389 248.713 73.0885 249.31 70.8958C249.341 70.7875 249.352 70.6368 249.25 70.5887C249.213 70.5778 249.174 70.5759 249.136 70.5829L243.922 70.9257" stroke="#171717" stroke-width="1.80628" stroke-linecap="round" stroke-linejoin="round"/>
<path id="Vector_90" d="M222.273 84.3815C222.285 84.3936 222.303 84.3994 222.315 84.4114C224.777 86.2659 227.3 88.036 229.883 89.7216C232.092 86.4748 234.121 83.108 235.958 79.6364L229.241 73.6036" stroke="#171717" stroke-width="1.80628" stroke-linecap="round" stroke-linejoin="round"/>
<path id="Vector_91" d="M266.33 108.03C269.835 108.022 273.337 107.809 276.817 107.392C276.203 109.065 275.998 110.853 275.8 112.623C275.457 115.609 275.117 118.598 274.782 121.587C272.603 120.57 269.99 121.172 267.708 120.444C267.652 120.433 267.6 120.411 267.553 120.379C267.506 120.347 267.466 120.305 267.436 120.257C267.431 120.244 267.429 120.229 267.43 120.215C267.43 120.119 267.533 120.01 267.611 120.07" stroke="#171717" stroke-width="1.80628" stroke-linecap="round" stroke-linejoin="round"/>
<path id="Vector_92" d="M262.681 104.779C260.259 103.312 257.68 102.121 254.993 101.227C257.239 96.7172 259.276 92.1099 261.104 87.4039C262.672 88.6169 264.441 89.5441 266.33 90.1432" stroke="#171717" stroke-width="1.80628" stroke-linecap="round" stroke-linejoin="round"/>
<path id="Vector_93" d="M233.9 79.7529C233.881 79.6752 233.834 79.6069 233.769 79.5603C233.704 79.5141 233.624 79.4927 233.544 79.5001C233.403 79.5199 233.273 79.5859 233.173 79.6884C233.074 79.7909 233.012 79.9237 232.997 80.0658C232.979 80.1718 232.985 80.2806 233.016 80.3838C233.045 80.4871 233.099 80.5823 233.171 80.6619C233.246 80.7407 233.343 80.795 233.449 80.8176C233.556 80.8401 233.667 80.83 233.767 80.7884C233.843 80.7376 233.907 80.672 233.958 80.5958C234.008 80.5197 234.042 80.4343 234.059 80.3446C234.076 80.2549 234.075 80.1629 234.056 80.0736C234.037 79.9843 234 79.9 233.948 79.8251" stroke="#171717" stroke-width="1.80628" stroke-linecap="round" stroke-linejoin="round"/>
<path id="Vector_94" d="M229.732 86.6332C229.557 86.6017 229.378 86.641 229.232 86.7415C229.17 86.7889 229.118 86.8483 229.08 86.9163C229.041 86.9842 229.017 87.0591 229.008 87.1364C228.999 87.2141 229.006 87.2925 229.028 87.3674C229.05 87.4424 229.086 87.5119 229.136 87.5725C229.192 87.6256 229.26 87.6649 229.334 87.687C229.408 87.7091 229.486 87.7138 229.562 87.7002C229.638 87.6866 229.71 87.6555 229.772 87.6093C229.834 87.5631 229.884 87.503 229.919 87.4338C229.943 87.3119 229.942 87.1865 229.916 87.065C229.889 86.9438 229.837 86.8293 229.763 86.7295" stroke="#171717" stroke-width="1.80628" stroke-linecap="round" stroke-linejoin="round"/>
<path id="Vector_95" d="M262.188 89.9864C262.051 89.9425 261.905 89.9363 261.765 89.9677C261.625 89.9996 261.497 90.0683 261.393 90.1669C261.29 90.269 261.224 90.4018 261.203 90.5455C261.182 90.6888 261.209 90.8348 261.279 90.9617C261.354 91.0844 261.472 91.1745 261.61 91.2145C261.748 91.2545 261.896 91.2417 262.025 91.1784C262.085 91.1423 262.137 91.0937 262.178 91.0359C262.218 90.978 262.246 90.9124 262.26 90.8433C262.273 90.7742 262.272 90.7031 262.257 90.6344C262.241 90.5657 262.211 90.5008 262.169 90.4441" stroke="#171717" stroke-width="1.80628" stroke-linecap="round" stroke-linejoin="round"/>
<path id="Vector_96" d="M258.979 98.8004C258.871 98.7538 258.752 98.7379 258.636 98.7538C258.519 98.7693 258.409 98.8167 258.317 98.8905C258.136 99.0415 257.993 99.2333 257.901 99.4504C257.813 99.6053 257.757 99.7773 257.739 99.9551C257.731 100.046 257.747 100.136 257.785 100.218C257.823 100.301 257.882 100.372 257.956 100.425C258.044 100.475 258.143 100.501 258.245 100.502C258.678 100.532 259.196 100.291 259.226 99.8581C259.217 99.6127 259.126 99.377 258.967 99.1898" stroke="#171717" stroke-width="1.80628" stroke-linecap="round" stroke-linejoin="round"/>
<path id="Vector_97" d="M252.46 56.6501C252.372 56.6524 252.286 56.673 252.207 56.7103C252.085 56.7604 251.979 56.8431 251.902 56.9495C251.825 57.0555 251.778 57.1813 251.767 57.3125C251.766 57.3995 251.784 57.4853 251.818 57.5649C251.852 57.6445 251.903 57.7163 251.966 57.7753C252.03 57.8344 252.104 57.8794 252.187 57.9074C252.269 57.9357 252.356 57.9466 252.442 57.9388C252.57 57.9 252.688 57.8355 252.791 57.7497C252.893 57.6639 252.977 57.5583 253.038 57.4391C253.079 57.3855 253.102 57.3203 253.104 57.2523C253.09 57.1945 253.058 57.1421 253.014 57.1017C252.894 56.9751 252.761 56.8621 252.617 56.7647C252.574 56.7406 252.49 56.7406 252.472 56.7647C252.46 56.7767 252.46 56.7887 252.472 56.807" stroke="#171717" stroke-width="1.80628" stroke-linecap="round" stroke-linejoin="round"/>
<path id="Vector_98" d="M256.324 47.2118C256.27 47.1683 256.208 47.1365 256.141 47.1182C256.074 47.1 256.005 47.0957 255.936 47.1062C255.868 47.1163 255.802 47.1403 255.743 47.1772C255.685 47.2141 255.635 47.2627 255.596 47.3201C255.53 47.444 255.511 47.588 255.544 47.7247C255.578 47.8614 255.66 47.981 255.776 48.0606C255.897 48.1324 256.037 48.1639 256.178 48.1499C256.317 48.1359 256.449 48.0773 256.553 47.9829C256.722 47.8202 256.757 47.4782 256.534 47.4005" stroke="#171717" stroke-width="1.80628" stroke-linecap="round" stroke-linejoin="round"/>
<path id="Vector_99" d="M341.458 76.4285C342.352 75.4341 343.011 74.251 343.385 72.9669C345.365 65.8086 338.725 58.3975 331.675 58.241C330.971 58.2232 330.267 58.2752 329.574 58.3963C326.769 58.8642 324.211 60.2845 322.331 62.4177C322.008 62.7874 321.708 63.1772 321.434 63.5857C320.333 65.2712 319.653 67.1967 319.451 69.1998C319.249 71.203 319.531 73.2255 320.272 75.0971C320.808 76.4529 321.613 77.6857 322.638 78.7213C324.715 80.7861 327.732 81.7794 330.658 81.6831C333.606 81.5161 336.444 80.505 338.833 78.771C339.803 78.1027 340.685 77.3157 341.458 76.4285Z" stroke="#171717" stroke-width="1.80628" stroke-linecap="round" stroke-linejoin="round"/>
<path id="Vector_100" d="M336.534 81.8713C337.124 82.7155 337.887 83.4245 338.773 83.951C339.658 84.4771 340.646 84.8087 341.669 84.9236C341.949 84.9706 342.236 84.95 342.506 84.8634C343.12 84.6227 343.343 83.876 343.391 83.2198C343.578 80.8358 342.585 78.5663 341.459 76.4288C341.326 76.1819 341.2 75.9411 341.067 75.7004C339.942 73.6235 338.788 71.5586 337.606 69.5054C335.312 65.5379 332.849 61.5584 329.575 58.3978C328.856 57.6958 328.094 57.0404 327.293 56.4351C325.866 55.3634 323.915 54.4424 322.38 55.3514C321.417 55.9233 320.941 57.0913 320.899 58.2052C320.927 59.3262 321.14 60.4351 321.531 61.4862C321.573 61.6306 321.657 61.8054 321.808 61.7992C321.958 61.7992 321.898 61.4804 321.79 61.5825" stroke="#FFED88" stroke-width="1.80628" stroke-linecap="round" stroke-linejoin="round"/>
<path id="Vector_101" d="M178.57 208.342C178.63 208.342 178.696 208.336 178.756 208.336C182.134 208.189 185.519 208.314 188.877 208.709" stroke="#171717" stroke-width="1.80628" stroke-linecap="round" stroke-linejoin="round"/>
<path id="Vector_102" d="M40.035 208.45L46.1939 213.905L54.1948 208.306L51.0824 216.241L55.4591 222.393L48.3912 221.412L44.7068 229.624L42.3829 222.152L34.8635 220.629L40.8838 216.662L40.035 208.45Z" stroke="#FFED88" stroke-width="1.80628" stroke-linecap="round" stroke-linejoin="round"/>
<path id="Vector_103" d="M201.339 82.5097L193.952 80.9865L188.805 86.5013L187.625 78.6627L180.87 75.0019L187.534 71.679L188.504 63.8944L193.802 69.6802L201.153 68.5363L197.769 75.4357L201.339 82.5097Z" stroke="#171717" stroke-width="1.80628" stroke-linecap="round" stroke-linejoin="round"/>
<path id="Vector_104" d="M333.157 150.137L327.209 145.495L320.153 148.162L322.567 140.612L318.136 134.339L325.577 134.309L329.893 127.765L332.079 135.296L339.183 137.524L333.091 142.208L333.157 150.137Z" stroke="#171717" stroke-width="1.80628" stroke-linecap="round" stroke-linejoin="round"/>
<path id="Vector_105" d="M322.338 197.084L320.64 191.328L314.836 189.787L319.893 186.024L319.936 179.913L324.758 183.339L330.586 181.105L328.508 186.987L332.067 191.719L325.962 191.93L322.338 197.084Z" stroke="#171717" stroke-width="1.80628" stroke-linecap="round" stroke-linejoin="round"/>
<path id="Vector_106" d="M76.4039 216.163C76.0909 214.031 75.7279 211.91 75.3144 209.799C75.272 209.552 75.2243 209.311 75.1703 209.071C75.1342 208.872 75.0977 208.673 75.0495 208.48C74.6881 206.68 74.2846 204.88 73.8463 203.092" stroke="#171717" stroke-width="1.80628" stroke-linecap="round" stroke-linejoin="round"/>
<path id="Vector_107" d="M69.595 215.849C71.2444 213.675 72.8721 211.485 74.4772 209.281C74.4772 209.275 74.4772 209.269 74.4834 209.269C74.6702 209.004 74.8628 208.745 75.0496 208.48C76.3499 206.68 77.632 204.87 78.8963 203.049" stroke="#171717" stroke-width="1.80628" stroke-linecap="round" stroke-linejoin="round"/>
<path id="Vector_108" d="M80.3174 212.387C79.7513 212.478 79.2034 212.177 78.7099 211.883C77.5711 211.196 76.4393 210.502 75.3144 209.799C75.0372 209.631 74.7665 209.462 74.4893 209.276L74.4835 209.269C71.8525 207.626 69.2518 205.926 66.681 204.17" stroke="#171717" stroke-width="1.80628" stroke-linecap="round" stroke-linejoin="round"/>
<path id="Vector_109" d="M66.8252 211.906C69.3416 210.943 71.8923 210.068 74.477 209.281C74.4805 209.278 74.4848 209.276 74.4891 209.275C74.712 209.203 74.9407 209.137 75.1697 209.071C77.3441 208.414 79.5356 207.824 81.7437 207.3" stroke="#171717" stroke-width="1.80628" stroke-linecap="round" stroke-linejoin="round"/>
<path id="Vector_110" d="M137.379 77.1809C136.037 75.4724 134.692 73.764 133.345 72.0556C131.443 69.642 129.54 67.2257 127.638 64.8071" stroke="#171717" stroke-width="1.80628" stroke-linecap="round" stroke-linejoin="round"/>
<path id="Vector_111" d="M128.754 77.2112C130.313 75.5133 131.844 73.7955 133.347 72.0576C135.141 70.0051 136.891 67.922 138.597 65.8086" stroke="#171717" stroke-width="1.80628" stroke-linecap="round" stroke-linejoin="round"/>
<path id="Vector_112" d="M192.628 34.7313C193.651 33.2683 194.675 31.8012 195.698 30.3301C196.637 28.988 197.576 27.6419 198.516 26.292" stroke="#171717" stroke-width="1.80628" stroke-linecap="round" stroke-linejoin="round"/>
<path id="Vector_113" d="M198.474 33.4972C197.547 32.4439 196.622 31.3883 195.699 30.3304C194.453 28.9155 193.21 27.5007 191.971 26.0861" stroke="#171717" stroke-width="1.80628" stroke-linecap="round" stroke-linejoin="round"/>
<path id="Vector_114" d="M316.203 216.373C315.185 214.488 314.132 212.625 313.042 210.782C312.049 209.084 311.023 207.408 309.966 205.755" stroke="#FFED88" stroke-width="1.80628" stroke-linecap="round" stroke-linejoin="round"/>
<path id="Vector_115" d="M307.1 215.638C309.123 214.073 311.103 212.454 313.041 210.78C315.232 208.89 317.365 206.93 319.44 204.898" stroke="#FFED88" stroke-width="1.80628" stroke-linecap="round" stroke-linejoin="round"/>
<path id="Vector_116" d="M187.141 135.704C189.022 133.887 191.006 132.177 193.081 130.583" stroke="#171717" stroke-width="1.80628" stroke-linecap="round" stroke-linejoin="round"/>
<path id="Vector_117" d="M182.33 132.144C183.835 127.532 185.215 122.882 186.468 118.194" stroke="#171717" stroke-width="1.80628" stroke-linecap="round" stroke-linejoin="round"/>
<path id="Vector_118" d="M173.231 130.436C172.904 128.057 172.385 125.709 171.681 123.415" stroke="#171717" stroke-width="1.80628" stroke-linecap="round" stroke-linejoin="round"/>
<path id="Vector_119" d="M147.652 217.341L145.214 214.254" stroke="#171717" stroke-width="1.80628" stroke-linecap="round" stroke-linejoin="round"/>
<path id="Vector_120" d="M138.597 229.33C139.066 228.33 139.756 227.451 140.616 226.759" stroke="#171717" stroke-width="1.80628" stroke-linecap="round" stroke-linejoin="round"/>
<path id="Vector_121" d="M167.695 220.873C166.751 219.59 165.806 218.306 164.861 217.022" stroke="#171717" stroke-width="1.80628" stroke-linecap="round" stroke-linejoin="round"/>
<path id="Vector_122" d="M175.846 215.548C176.411 214.348 177.208 213.272 178.191 212.381" stroke="#171717" stroke-width="1.80628" stroke-linecap="round" stroke-linejoin="round"/>
<path id="Vector_123" d="M147.098 242.64C146.478 241.602 145.858 240.564 145.239 239.527" stroke="#171717" stroke-width="1.80628" stroke-linecap="round" stroke-linejoin="round"/>
<path id="Vector_124" d="M138.988 252.909C139.934 251.673 141.52 250.938 142.143 249.512" stroke="#171717" stroke-width="1.80628" stroke-linecap="round" stroke-linejoin="round"/>
<path id="Vector_125" d="M129.188 222.42C128.325 221.476 127.462 220.532 126.599 219.588" stroke="#171717" stroke-width="1.80628" stroke-linecap="round" stroke-linejoin="round"/>
<path id="Vector_126" d="M119.042 226.433C117.769 227.073 116.683 228.033 115.89 229.217C115.766 229.403 115.541 229.621 115.359 229.492" stroke="#171717" stroke-width="1.80628" stroke-linecap="round" stroke-linejoin="round"/>
<path id="Vector_127" d="M111.739 236.71C111.272 236.505 110.865 236.184 110.557 235.778C109.774 234.945 108.879 234.223 107.899 233.634" stroke="#171717" stroke-width="1.80628" stroke-linecap="round" stroke-linejoin="round"/>
<path id="Vector_128" d="M99.6423 248.364C100.403 246.727 101.346 245.18 102.454 243.754" stroke="#171717" stroke-width="1.80628" stroke-linecap="round" stroke-linejoin="round"/>
<path id="Vector_129" d="M109.995 251.637C108.865 250.993 107.746 250.329 106.64 249.645" stroke="#171717" stroke-width="1.80628" stroke-linecap="round" stroke-linejoin="round"/>
<path id="Vector_130" d="M116.264 243.546L119.316 238.922" stroke="#171717" stroke-width="1.80628" stroke-linecap="round" stroke-linejoin="round"/>
<path id="Vector_131" d="M116.226 255.596C115.123 257.321 114.098 259.092 113.153 260.911" stroke="#171717" stroke-width="1.80628" stroke-linecap="round" stroke-linejoin="round"/>
<path id="Vector_132" d="M95.1477 238.253C96.0275 236.7 96.9078 235.149 97.788 233.598L97.6016 233.792" stroke="#171717" stroke-width="1.80628" stroke-linecap="round" stroke-linejoin="round"/>
<path id="Vector_133" d="M95.9861 263.29C94.93 262.607 93.8739 261.924 92.8182 261.24" stroke="#171717" stroke-width="1.80628" stroke-linecap="round" stroke-linejoin="round"/>
<path id="Vector_134" d="M127.504 266.311C126.225 265.421 124.907 264.592 123.548 263.826C123.54 263.735 123.533 263.644 123.525 263.552" stroke="#171717" stroke-width="1.80628" stroke-linecap="round" stroke-linejoin="round"/>
<path id="Vector_135" d="M112.407 277.018C112.996 275.268 113.754 273.579 114.668 271.976" stroke="#171717" stroke-width="1.80628" stroke-linecap="round" stroke-linejoin="round"/>
<path id="Vector_136" d="M107.149 269.672C106.094 269.2 105.249 268.355 104.778 267.299" stroke="#171717" stroke-width="1.80628" stroke-linecap="round" stroke-linejoin="round"/>
<path id="Vector_137" d="M95.1706 275.027C96.1048 273.579 97.1427 272.201 98.2768 270.905" stroke="#171717" stroke-width="1.80628" stroke-linecap="round" stroke-linejoin="round"/>
<path id="Vector_138" fill-rule="evenodd" clip-rule="evenodd" d="M152.478 328.667C151.202 328.445 149.901 328.198 148.775 327.554C148.679 327.5 148.587 327.441 148.498 327.376L148.354 327.599C143.123 332.241 137.189 336.024 130.774 338.809C128.901 339.621 126.897 340.356 124.874 340.103C123.687 339.922 122.553 339.486 121.551 338.827C118.673 337.014 116.704 334.09 115.018 331.139C114.224 329.742 113.459 328.297 113.152 326.72C112.695 324.36 113.309 321.898 114.422 319.766C115.536 317.633 117.126 315.798 118.739 314.022C122.705 309.659 126.918 305.526 131.358 301.645C133.093 300.123 134.942 298.602 137.123 297.922C125.294 293.671 111.803 295.941 99.6484 300.266C99.1786 300.434 98.6621 300.188 98.4948 299.718C98.3274 299.248 98.5728 298.732 99.0427 298.565C111.964 293.966 126.754 291.516 139.628 296.962C139.884 297.07 140.064 297.282 140.14 297.529C141.477 297.558 142.826 297.799 144.146 298.044C137.602 292.378 130.537 287.345 123.044 283.01L123.032 282.914C114.055 284.321 104.91 284.855 96.897 280.817C89.0767 281.293 81.1056 281.877 73.8992 284.947C66.5245 288.09 59.9863 294.429 58.8727 302.37C58.0177 308.511 60.5163 314.778 64.4958 319.528C68.4753 324.285 73.8091 327.704 79.2939 330.588C91.6599 337.084 105.151 341.202 118.788 344.206C144.898 349.962 171.785 351.756 198.51 351.069C201.677 350.986 205.295 350.618 207.42 348.463C207.727 348.148 208 347.801 208.233 347.427C208.728 346.588 209.041 345.655 209.154 344.688C209.264 343.862 209.302 343.028 209.268 342.195C209.189 339.172 208.661 336.178 207.703 333.309L207.643 332.141C189.182 333.046 170.679 331.881 152.478 328.667ZM90.6391 284.895C90.9012 284.869 91.1617 284.959 91.352 285.141C93.1163 286.824 94.7044 288.682 96.0917 290.688C96.3756 291.098 96.2731 291.661 95.863 291.944C95.8339 291.965 95.804 291.983 95.7733 291.999C95.5784 292.383 95.1303 292.584 94.7044 292.453C94.0738 292.261 93.4141 292.184 92.7564 292.226C92.7385 292.227 92.7203 292.227 92.7024 292.227C90.5114 292.235 88.3207 292.243 86.13 292.252C85.7662 292.253 85.4369 292.036 85.2952 291.701C85.1531 291.366 85.2261 290.978 85.48 290.718C87.1279 289.029 88.6356 287.209 89.9887 285.276C90.1398 285.06 90.3774 284.921 90.6391 284.895ZM93.672 290.431C92.8003 289.288 91.8567 288.201 90.8472 287.177C90.0182 288.304 89.138 289.392 88.2088 290.437C89.6956 290.432 91.1827 290.427 92.6698 290.421C93.0041 290.401 93.3392 290.404 93.672 290.431ZM89.4502 309.069C89.1846 308.913 88.8577 308.904 88.5832 309.044C88.309 309.184 88.1246 309.454 88.0951 309.761C87.8963 311.803 87.555 313.828 87.0739 315.823C86.9885 316.178 87.1255 316.551 87.4214 316.765C87.7177 316.98 88.1141 316.995 88.4255 316.803C90.3261 315.633 92.1744 314.388 93.9705 313.068C94.1759 313.078 94.3813 313.017 94.5506 312.891C94.791 312.713 94.9269 312.427 94.9141 312.128C94.9106 312.039 94.9071 311.951 94.904 311.864C94.8869 311.365 94.4691 310.975 93.9705 310.992C93.8513 310.996 93.738 311.023 93.6355 311.069C92.1872 310.521 90.787 309.852 89.4502 309.069ZM89.2906 314.116C90.1778 313.536 91.053 312.94 91.9162 312.325C91.1773 312.012 90.4512 311.668 89.7398 311.295C89.6195 312.24 89.4696 313.181 89.2906 314.116ZM112.311 303.175C112.625 303.166 112.921 303.32 113.092 303.583C114.102 305.125 115.008 306.733 115.806 308.395C116.022 308.845 115.832 309.384 115.382 309.6C115.249 309.664 115.107 309.692 114.968 309.688C114.829 309.927 114.583 310.099 114.287 310.131L112.119 310.373H112.119L107.732 310.862C107.344 310.906 106.972 310.695 106.81 310.34C106.648 309.985 106.732 309.566 107.019 309.301C108.809 307.65 110.338 305.737 111.554 303.626C111.711 303.354 111.997 303.184 112.311 303.175ZM113.78 308.371C113.334 307.492 112.855 306.63 112.346 305.787C111.654 306.841 110.888 307.844 110.052 308.786L111.919 308.578H111.919L113.78 308.371ZM162.498 335.068C162.229 335.037 161.96 335.129 161.765 335.318C161.571 335.506 161.471 335.772 161.495 336.042C161.663 338.018 161.719 340.001 161.661 341.983C161.651 342.332 161.844 342.656 162.155 342.814C162.467 342.972 162.842 342.937 163.118 342.722C165.045 341.225 166.89 339.631 168.711 338.048C168.911 338.099 169.112 338.151 169.312 338.205C169.793 338.335 170.289 338.05 170.418 337.568C170.548 337.086 170.263 336.59 169.781 336.461C169.537 336.396 169.293 336.332 169.049 336.27C168.861 336.138 168.633 336.085 168.412 336.113C166.464 335.647 164.489 335.298 162.498 335.068ZM163.377 337.001C164.435 337.147 165.488 337.329 166.534 337.545C165.525 338.417 164.515 339.279 163.488 340.117C163.481 339.077 163.444 338.038 163.377 337.001Z" fill="#171717"/>
<path id="Vector_139" fill-rule="evenodd" clip-rule="evenodd" d="M244.278 325.878C239.112 327.711 233.796 329.089 228.39 329.996C223.394 330.848 218.358 331.448 213.303 331.796C212.544 331.856 211.785 331.904 211.027 331.951C209.901 332.024 208.769 332.084 207.643 332.138C189.183 333.043 170.679 331.878 152.478 328.665C151.202 328.443 149.901 328.196 148.775 327.552C148.68 327.499 148.587 327.441 148.498 327.377C147.432 326.68 146.601 325.677 146.114 324.499C145.019 322.019 145.073 318.78 145.532 315.993C145.891 313.736 146.477 311.521 147.283 309.382C148.77 305.535 151.124 302.14 154.772 300.382L154.754 300.183C165.089 299.37 175.585 299.385 186.08 299.399C198.599 299.415 211.116 299.432 223.352 298.045C223.573 298.144 223.833 298.154 224.073 298.052C230.5 295.326 237.66 294.85 244.391 296.703C244.872 296.835 245.369 296.553 245.501 296.072C245.634 295.591 245.352 295.094 244.871 294.961C237.747 293 230.17 293.504 223.368 296.389C222.82 289.582 222.623 282.75 222.778 275.921L222.995 275.927C231.954 275.186 241.206 275.162 249.648 278.275C258.082 281.381 265.62 288.148 267.534 296.938C267.751 297.942 267.896 298.96 267.968 299.984C268.347 305.258 266.728 310.713 263.254 314.698C261.345 316.884 258.949 318.587 256.469 320.098C252.605 322.422 248.522 324.358 244.278 325.878ZM173.323 305.781C173.121 305.517 172.79 305.385 172.461 305.438C172.132 305.492 171.86 305.722 171.751 306.037C171.059 308.053 169.958 309.928 168.783 311.844C168.69 311.972 168.622 312.116 168.581 312.269C168.534 312.448 168.526 312.636 168.558 312.82C168.567 312.868 168.579 312.915 168.595 312.961C168.76 313.431 169.155 313.615 169.39 313.677C169.612 313.735 169.82 313.728 169.94 313.719C172.478 313.554 175.024 313.527 177.566 313.638C178.064 313.66 178.485 313.273 178.507 312.775C178.524 312.382 178.287 312.036 177.941 311.897C177.911 311.807 177.865 311.719 177.803 311.638C176.309 309.686 174.816 307.734 173.323 305.781ZM172.86 308.149C173.784 309.358 174.708 310.566 175.632 311.774C174.051 311.749 172.469 311.776 170.889 311.855C171.598 310.674 172.289 309.444 172.86 308.149ZM241.548 304.253C241.78 304.053 241.904 303.74 241.849 303.416C241.765 302.925 241.298 302.594 240.806 302.678L232.51 304.098C232.254 304.142 232.03 304.294 231.893 304.515C231.757 304.736 231.723 305.005 231.799 305.253C232.052 306.078 232.563 306.707 233.044 307.214C233.222 307.402 233.413 307.589 233.59 307.764L233.591 307.765L233.591 307.765L233.671 307.843L233.737 307.909L233.764 307.935C233.994 308.164 234.2 308.376 234.378 308.592L234.379 308.592C235.053 309.404 235.451 310.387 235.908 311.514C235.996 311.732 236.086 311.955 236.181 312.183L237.4 310.382H237.4L236.181 312.183C236.432 312.785 236.862 313.775 237.807 314.252C238.051 314.375 238.337 314.38 238.586 314.268C238.835 314.156 239.019 313.937 239.088 313.673C239.908 310.533 240.728 307.393 241.548 304.253ZM238.508 308.745L239.558 304.725L234.078 305.662C234.162 305.763 234.254 305.865 234.355 305.971C234.51 306.135 234.668 306.29 234.838 306.458L234.839 306.459C234.903 306.522 234.969 306.586 235.036 306.653C235.276 306.891 235.532 307.153 235.768 307.438L239.558 304.725L235.769 307.439C236.508 308.329 236.993 309.394 237.4 310.382L238.508 308.745ZM238.508 308.745L237.4 310.382C237.471 310.557 237.541 310.728 237.608 310.896L237.609 310.9C237.679 311.072 237.746 311.241 237.814 311.404L238.508 308.745ZM256.9 293.214C256.916 292.895 256.762 292.59 256.494 292.414C256.227 292.238 255.886 292.216 255.599 292.358L250.631 294.8C250.376 294.926 250.195 295.165 250.142 295.445C250.09 295.725 250.173 296.014 250.366 296.223C251.142 297.064 252.033 297.788 253.014 298.376L253.015 298.376C253.192 298.482 253.354 298.575 253.508 298.662C253.799 298.829 254.058 298.976 254.317 299.157C254.687 299.414 254.934 299.66 255.08 299.94C255.311 300.382 255.857 300.553 256.298 300.322C256.741 300.091 256.911 299.545 256.68 299.103C256.656 299.057 256.631 299.011 256.605 298.967C256.703 297.049 256.802 295.131 256.9 293.214ZM255.017 294.657L254.878 297.371C254.688 297.256 254.496 297.146 254.319 297.045L254.317 297.043H254.316L254.227 296.992C254.124 296.933 254.028 296.878 253.942 296.826C253.463 296.539 253.008 296.214 252.584 295.853L255.017 294.657ZM202.749 318.799C202.992 318.959 203.143 319.227 203.154 319.519C203.246 321.893 203.238 324.265 203.132 326.634C203.127 326.75 203.1 326.859 203.057 326.958C203.045 327.086 203.006 327.214 202.937 327.332C202.687 327.763 202.134 327.91 201.703 327.659C199.817 326.562 197.985 325.38 196.175 324.212L194.479 323.118C194.194 322.933 194.036 322.604 194.071 322.266C194.106 321.928 194.327 321.638 194.644 321.516L201.927 318.711C202.199 318.606 202.505 318.639 202.749 318.799ZM201.373 325.361C201.418 323.86 201.423 322.357 201.388 320.854L196.951 322.563L197.155 322.694C198.562 323.603 199.957 324.503 201.373 325.361ZM216.369 312.107L214.902 309.339C215.264 309.4 215.649 309.487 216.068 309.582L216.215 309.615C216.663 309.716 217.155 309.824 217.671 309.884L216.369 312.107ZM220.302 308.705C220.401 309.113 220.207 309.524 219.854 309.715C219.838 309.755 219.818 309.794 219.796 309.833L217.108 314.417C216.943 314.699 216.637 314.87 216.31 314.863C215.983 314.856 215.685 314.672 215.531 314.383C214.545 312.523 213.559 310.663 212.573 308.802C212.435 308.541 212.433 308.227 212.569 307.964C212.706 307.701 212.962 307.521 213.256 307.484C214.37 307.341 215.473 307.593 216.389 307.802C216.436 307.813 216.481 307.823 216.526 307.833C216.555 307.84 216.583 307.846 216.612 307.853C217.643 308.085 218.451 308.228 219.21 308.043C219.695 307.924 220.184 308.221 220.302 308.705Z" fill="#171717"/>
<path id="Vector_140" d="M138.344 198.226C137.731 200.348 137.119 202.469 136.505 204.59" stroke="#171717" stroke-width="1.80628" stroke-linecap="round" stroke-linejoin="round"/>
<path id="Vector_141" d="M172.237 201.242C172.289 204.195 172.267 207.149 172.17 210.102L172.182 209.847" stroke="#171717" stroke-width="1.80628" stroke-linecap="round" stroke-linejoin="round"/>
<path id="Vector_142" d="M165.642 201.298C165.733 204.195 165.783 207.093 165.793 209.992C165.803 209.927 165.813 209.86 165.823 209.795" stroke="#171717" stroke-width="1.80628" stroke-linecap="round" stroke-linejoin="round"/>
<path id="Vector_143" d="M159.229 201.297C158.738 204.221 159.22 207.225 158.934 210.175C158.929 210.226 158.931 210.289 158.976 210.311C159.022 210.332 159.061 210.233 159.01 210.239" stroke="#171717" stroke-width="1.80628" stroke-linecap="round" stroke-linejoin="round"/>
<path id="Vector_144" d="M153.119 201.136C153.183 204.145 153.208 207.156 153.194 210.167" stroke="#171717" stroke-width="1.80628" stroke-linecap="round" stroke-linejoin="round"/>
<path id="Vector_145" d="M163.194 210.218C163.116 214.917 163.039 219.615 162.961 224.313" stroke="#171717" stroke-width="1.80628" stroke-linecap="round" stroke-linejoin="round"/>
<path id="Vector_146" d="M129.821 257.667C129.181 265.614 129.228 273.6 129.963 281.539" stroke="#171717" stroke-width="1.80628" stroke-linecap="round" stroke-linejoin="round"/>
<g id="Group" opacity="0.1">
<path id="Vector_147" d="M148.882 204.003C149.037 205.477 149.779 208.444 148.144 209.305C147.324 209.738 146.12 209.761 145.211 209.88C143.809 210.063 142.407 210.249 141.009 210.459C135.65 211.227 130.358 212.402 125.178 213.974C115.251 217.062 105.817 221.811 98.4698 229.293C91.5793 236.31 86.7262 245.333 85.8075 255.202C84.859 265.396 88.9037 276.101 98.1549 281.207C109.761 287.611 123.093 284.274 134.976 280.612C140.131 279.023 137.932 270.905 132.74 272.504C123.524 275.344 112.772 278.915 103.415 274.586C95.5394 270.943 92.6595 262.058 93.7824 253.897C96.4286 234.698 114.841 223.23 132.117 218.835C134.74 218.168 137.39 217.608 140.055 217.132C142.827 216.637 145.696 216.45 148.441 215.837C151.175 215.226 153.479 213.53 154.445 210.845C155.318 208.421 154.889 205.692 154.206 203.282C153.403 200.454 148.543 200.865 148.879 204.003L148.882 204.003Z" fill="#171717"/>
</g>
<g id="Group_2" opacity="0.1">
<path id="Vector_148" d="M243.196 95.7753C232.948 96.9627 226.73 107.726 228.182 117.384L232.561 113.004C225.307 110.236 218.48 117.34 218.588 124.331C218.717 132.771 225.727 138.11 232.294 142.045L233.308 134.288C227.197 135.322 222.059 140.007 220.159 145.856C218.181 151.942 220.253 158.991 224.887 163.3L226.766 156.182C219.207 158.237 214.451 166.642 216.776 174.172L220.883 168.781C213.871 167.954 205.383 168.307 201.473 175.294C197.532 182.337 202.43 189.256 207.477 194.048L211.639 186.899C207.326 185.905 203.377 188.423 201.913 192.524C200.503 196.474 202.319 200.481 204.287 203.873L205.815 198.045C203.783 199.147 202.095 200.79 200.939 202.792C199.783 204.795 199.204 207.078 199.265 209.389L206.508 206.389C202.47 203.25 196.971 202.552 192.719 205.811C189.059 208.616 187.437 213.906 189.186 218.239L193.275 212.871C188.291 213.273 183.762 215.217 180.234 218.809C176.423 222.69 182.377 228.654 186.206 224.781C188.068 222.818 190.581 221.6 193.275 221.353C195.696 221.165 198.501 218.742 197.365 215.985C196.826 214.679 196.682 213.551 197.683 212.635C198.363 212.014 199.793 211.834 200.505 212.391C201.88 213.467 203.428 214.022 205.141 213.269C205.908 212.949 206.565 212.411 207.029 211.722C207.492 211.032 207.743 210.221 207.75 209.391C207.703 207.59 208.435 206.294 210.113 205.403C212.153 204.32 212.755 201.506 211.641 199.574C211.054 198.556 209.872 196.992 209.941 195.732C210.008 194.521 210.464 195.405 209.362 195.15C213.355 196.078 216.765 191.051 213.523 188.001C211.47 186.07 206.923 182.093 209.097 179.149C211.514 175.875 217.258 176.874 220.879 177.301C223.628 177.626 225.73 174.32 224.986 171.91C224.058 168.904 225.751 165.288 229.027 164.398C232.039 163.579 233.273 159.481 230.907 157.279C228.397 154.945 227.218 151.425 228.356 148.119C229.452 144.939 232.343 143.024 235.561 142.475C239.313 141.836 239.483 136.457 236.575 134.718C232.847 132.489 228.089 129.998 226.617 125.602C226.121 124.121 225.913 122.403 226.922 121.095C227.88 119.853 229.227 119.363 230.666 119.873C233.462 120.863 235.473 117.931 235.046 115.493C233.863 108.737 238.744 103.197 244.498 100.594C246.776 99.5638 245.702 95.4868 243.194 95.7792L243.196 95.7753Z" fill="#171717"/>
</g>
<g id="Group_3" opacity="0.1">
<path id="Vector_149" d="M265.177 160.243C263.167 160.167 261.146 162.226 259.854 163.608C258.23 165.37 256.948 167.421 256.076 169.654C255.295 171.768 254.958 174.02 255.086 176.271C255.215 178.521 255.805 180.721 256.822 182.733C260.93 190.802 273.369 192.176 277.967 183.771L270.652 182.815C271.324 185.342 272.755 187.604 274.752 189.293C276.748 190.983 279.215 192.02 281.819 192.264C286.052 192.635 293.335 189.309 292.21 184.038C292.013 183.119 290.915 182.217 289.946 182.314C288.423 182.467 287.562 183.36 286.192 183.861C285.06 184.296 283.855 184.508 282.643 184.486C280.464 184.349 278.898 182.714 278.371 180.687C277.513 177.386 272.733 176.733 271.057 179.73C270.268 181.141 268.533 181.692 267.043 181.492C265.119 181.233 263.665 179.754 262.88 177.842C261.849 175.334 262.275 172.816 263.009 170.303C263.447 168.804 264.278 167.428 264.989 166.047C265.711 164.649 266.916 163.63 266.888 161.954C266.88 161.503 266.696 161.073 266.378 160.754C266.058 160.435 265.629 160.252 265.177 160.243Z" fill="#171717"/>
</g>
<g id="Group_4" opacity="0.1">
<path id="Vector_150" d="M267.795 210.65L267.818 210.456C267.818 210.268 267.769 210.084 267.676 209.921C267.583 209.758 267.448 209.623 267.286 209.528C264.074 207.315 259.065 209.428 256.935 212.203C254.294 215.641 253.557 220.52 256.061 224.292C261.691 232.773 275.419 229.169 277.55 219.706L275.041 221.617C277.921 221.371 280.438 220.252 282.94 218.842C285.305 217.508 287.431 215.764 288.745 213.364C289.469 212.044 287.73 210.622 286.63 211.733C285.087 213.291 283.49 214.832 281.478 215.764C279.435 216.71 277.243 216.579 275.041 216.413C273.811 216.319 272.94 217.306 272.531 218.323C271.464 220.978 269.522 223.324 266.521 223.75C265.105 223.939 263.666 223.691 262.395 223.039C261.125 222.386 260.084 221.361 259.413 220.1C257.844 217.295 258.544 213.839 261.412 212.271C262.954 211.429 264.38 211.405 266.083 211.509C266.749 211.548 267.695 211.507 267.795 210.655V210.65Z" fill="#171717"/>
</g>
<g id="Group_5" opacity="0.1">
<path id="Vector_151" d="M209.938 125.157C207.083 125.415 205.771 127.031 204.24 129.286L205.069 128.649C201.896 129.459 202.829 134.22 204.422 136.035C206.261 138.129 210.363 139.425 212.413 136.907C213.61 135.438 212.937 132.929 210.779 132.961C209.662 132.978 208.596 133.497 207.824 132.422C207.069 131.369 207.48 129.947 206.417 129.005L206.823 129.985C206.939 128.432 209.157 126.91 210.299 126.024C210.368 125.952 210.415 125.862 210.433 125.763C210.452 125.665 210.441 125.564 210.403 125.471C210.365 125.379 210.301 125.3 210.218 125.243C210.136 125.187 210.039 125.156 209.938 125.154V125.157Z" fill="#171717"/>
</g>
<g id="Group_6" opacity="0.1">
<path id="Vector_152" d="M207.906 149.301C203.286 149.443 200.105 154.538 201.489 158.869C201.851 160.009 202.457 161.058 203.266 161.94C204.075 162.822 205.066 163.517 206.172 163.977C208.287 164.865 211.872 165.406 212.764 162.669C212.843 162.393 212.846 162.101 212.773 161.823C212.699 161.546 212.552 161.293 212.347 161.093C211.027 159.939 209.907 160.62 208.354 160.372C207.657 160.265 206.996 159.99 206.428 159.572C205.86 159.153 205.402 158.603 205.093 157.969C203.56 154.816 205.375 151.993 208.238 150.522C208.359 150.447 208.452 150.335 208.504 150.203C208.557 150.071 208.565 149.925 208.528 149.788C208.49 149.651 208.41 149.529 208.298 149.441C208.186 149.354 208.049 149.304 207.907 149.301H207.906Z" fill="#171717"/>
</g>
<g id="Group_7" opacity="0.1">
<path id="Vector_153" d="M75.2144 82.7353C69.8736 84.2938 64.7339 86.9636 59.8773 89.6401C54.9205 92.4136 50.4199 95.9329 46.5329 100.075C38.3438 108.804 32.4846 119.925 31.5924 131.991C29.7076 157.484 46.8163 179.926 70.0409 188.843C76.9811 191.507 84.5677 192.16 91.9532 192.143C95.6985 192.135 99.6174 191.398 103.31 190.77C105.136 190.522 106.938 190.128 108.7 189.591C110.45 188.986 112.136 188.104 113.832 187.361C115.393 186.678 114.168 184.625 112.766 184.833C109.667 185.293 106.46 185.503 103.336 185.818C100.382 186.146 97.4019 186.159 94.4448 185.856C91.3754 185.519 88.3697 185.507 85.3446 184.798C82.431 184.148 79.5546 183.341 76.7271 182.382C66.7452 178.884 57.9681 173.751 50.9895 165.663C36.8835 149.312 34.5973 123.194 48.1578 105.805C51.7921 101.146 56.0962 97.2434 60.6682 93.5407C65.3691 89.7356 70.5325 87.063 75.8449 84.2344C76.6654 83.7972 76.1032 82.4778 75.2136 82.7372L75.2144 82.7353Z" fill="#171717"/>
</g>
<g id="Group_8" opacity="0.1">
<path id="Vector_154" d="M156.895 200.837C158.103 199.482 157.798 197.865 157.799 196.134C157.799 194.135 157.685 192.104 157.817 190.109C158.066 186.348 158.217 182.586 158.416 178.818C158.61 175.16 158.705 171.397 159.797 167.871C160.32 166.346 161.031 164.893 161.914 163.545C162.675 162.288 163.772 161.207 164.41 159.895C164.507 159.72 164.557 159.523 164.556 159.323C164.554 159.123 164.501 158.927 164.401 158.753C164.302 158.58 164.159 158.435 163.987 158.332C163.815 158.23 163.62 158.174 163.419 158.17C160.184 158.014 157.513 161.389 156.318 164.023C154.633 167.736 154.23 171.784 153.976 175.809C153.709 180.033 153.347 184.371 153.618 188.602C153.763 190.862 153.801 193.112 153.873 195.379C153.931 197.204 153.623 199.482 155.016 200.835C155.267 201.081 155.604 201.219 155.956 201.219C156.307 201.219 156.644 201.081 156.895 200.835V200.837Z" fill="#171717"/>
</g>
</g>
</svg>
